<svg xmlns="http://www.w3.org/2000/svg" width="24.953" height="24.954" viewBox="0 0 24.953 24.954">
  <g id="Location-Ring" transform="translate(-215.094 469.907)">
    <path id="Ring" d="M17.75,21.089A11.44,11.44,0,1,0,14.333,22.6" transform="translate(216.094 -468.907)" fill="none" stroke="#2140c7" stroke-width="2"/>
    <g id="Location" transform="translate(222.171 -464.67)">
      <g id="form-_-location" data-name="form-/-location" transform="translate(1 1)">
        <g id="icon-_-location" data-name="icon-/-location" transform="translate(0 0)">
          <ellipse id="Oval" cx="1" cy="1" rx="1" ry="1" transform="translate(3.335 4.002)" fill="#2140c7" stroke="#2140c7" stroke-width="1"/>
          <g id="Group-7" transform="translate(0 0)">
            <path id="Stroke-1" d="M0,4.348a4.348,4.348,0,1,1,8.7,0A6.808,6.808,0,0,1,7.518,7.569" transform="translate(0 0)" fill="none" stroke="#42ff47" stroke-width="2" fill-rule="evenodd"/>
            <path id="Stroke-3" d="M7.27,12.874c-.638,1.159-1.669,3.1-2.333,4.245C4.273,15.974,3.66,14.8,3.022,13.636c-.42-.762-.834-1.528-1.256-2.289" transform="translate(-0.588 -3.779)" fill="none" stroke="#2140c7" stroke-width="2" fill-rule="evenodd"/>
            <path id="Stroke-5" d="M0,6.519A6.808,6.808,0,0,0,1.178,9.74c.408.734.808,1.473,1.212,2.208" transform="translate(0 -2.171)" fill="none" stroke="#2140c7" stroke-width="2" fill-rule="evenodd"/>
          </g>
        </g>
      </g>
    </g>
  </g>
</svg>
