<svg xmlns="http://www.w3.org/2000/svg" width="24.868" height="24.869" viewBox="0 0 24.868 24.869">
  <g id="Rate-Ring" transform="translate(0.3 0.3)">
    <g id="Dollar" transform="translate(0.7 0.7)">
      <path id="Fill-3" d="M10.61,3.5H8.794v14.16H10.61" transform="translate(1.872 0.858)" fill="#2ee72e" fill-rule="evenodd"/>
      <path id="Fill-3-2" data-name="Fill-3" d="M10.61,13.927V11.449M7.769,7.769,13.8,12.4c0-1.94-1.209-2.714-3.193-3.088,0,0-.669-.083-1.816-.339a1.132,1.132,0,0,1-1.025-1.2A1.24,1.24,0,0,1,8.794,6.618,2.584,2.584,0,0,1,10.61,6.7a1.538,1.538,0,0,1,.879,1.263h2.136A3.207,3.207,0,0,0,10.61,4.9a6.989,6.989,0,0,0-.942-.093,5.418,5.418,0,0,0-.874.064c-1.939.255-3.176,1.466-3.176,3.088,0,1.873,1.039,2.744,3.176,3.146,0,0,1.118.17,1.816.341a1.282,1.282,0,0,1,0,2.478,3.5,3.5,0,0,1-1.816.054A1.7,1.7,0,0,1,7.53,12.309H5.32c.115,1.795,1.139,3.154,3.475,3.433a6.222,6.222,0,0,0,.9.069,6.437,6.437,0,0,0,.912-.083A3.34,3.34,0,0,0,13.8,12.4" transform="translate(1.872 0.858)" fill="#2140c7" fill-rule="evenodd"/>
      <path id="Fill-3-3" data-name="Fill-3" d="M10.61,3.5H8.794V8.156H10.61" transform="translate(1.872 5.609)" fill="#2ee72e" fill-rule="evenodd"/>
    </g>
    <path id="Ring" d="M18.384,21.71a11.39,11.39,0,1,0-3.4,1.5" transform="translate(0 0)" fill="none" stroke="#2140c7" stroke-width="2" fill-rule="evenodd"/>
  </g>
</svg>
